<?xml version="1.0" encoding="iso-8859-1"?>
<!-- Generator: Adobe Illustrator 16.0.0, SVG Export Plug-In . SVG Version: 6.00 Build 0)  -->
<!DOCTYPE svg PUBLIC "-//W3C//DTD SVG 1.0//EN" "http://www.w3.org/TR/2001/REC-SVG-20010904/DTD/svg10.dtd">
<svg version="1.0" id="Layer_1" xmlns="http://www.w3.org/2000/svg" xmlns:xlink="http://www.w3.org/1999/xlink" x="0px" y="0px"
	 width="7px" height="7px" viewBox="0 0 7 7" enable-background="new 0 0 7 7" xml:space="preserve">
<path fill="#13809E" d="M7,5.633C7,5.79,6.945,5.924,6.835,6.034L6.034,6.835C5.924,6.945,5.79,7,5.633,7
	c-0.156,0-0.291-0.055-0.4-0.165L3.5,5.104L1.768,6.835C1.658,6.945,1.524,7,1.367,7C1.21,7,1.076,6.945,0.966,6.835L0.165,6.034
	C0.055,5.924,0,5.79,0,5.633c0-0.156,0.055-0.291,0.165-0.4L1.897,3.5L0.165,1.768C0.055,1.658,0,1.524,0,1.367
	C0,1.21,0.055,1.076,0.165,0.966l0.801-0.801C1.076,0.055,1.21,0,1.367,0c0.157,0,0.291,0.055,0.401,0.165L3.5,1.897l1.732-1.732
	C5.342,0.055,5.477,0,5.633,0C5.79,0,5.924,0.055,6.034,0.165l0.801,0.801C6.945,1.076,7,1.21,7,1.367
	c0,0.157-0.055,0.291-0.165,0.401L5.104,3.5l1.731,1.732C6.945,5.342,7,5.477,7,5.633"/>
</svg>
